PathFileType	4	(X/Y/Z)	/Users/niels/Desktop/University/Third Semester/Perception and Action/Exam/Gymnastics Motion Tracking/Code for Gym Tracking/Analyzed Data/Webcam_Backflip/id2_5_baseline_Sports2D/id2_5_baseline_Sports2D_px_person00.trc
DataRate	CameraRate	NumFrames	NumMarkers	Units	OrigDataRate	OrigDataStartFrame	OrigNumFrames
29.875	29.875	7	22	m	29.875	90	240
Frame#	Time	Hip			RHip			RKnee			RAnkle			RBigToe			RSmallToe			RHeel			LHip			LKnee			LAnkle			LBigToe			LSmallToe			LHeel			Neck			Head			Nose			RShoulder			RElbow			RWrist			LShoulder			LElbow			LWrist		
		X1	Y1	Z1	X2	Y2	Z2	X3	Y3	Z3	X4	Y4	Z4	X5	Y5	Z5	X6	Y6	Z6	X7	Y7	Z7	X8	Y8	Z8	X9	Y9	Z9	X10	Y10	Z10	X11	Y11	Z11	X12	Y12	Z12	X13	Y13	Z13	X14	Y14	Z14	X15	Y15	Z15	X16	Y16	Z16	X17	Y17	Z17	X18	Y18	Z18	X19	Y19	Z19	X20	Y20	Z20	X21	Y21	Z21	X22	Y22	Z22
90	3.01255230125523	0.8684925441376081	-0.21052028117620486	0.0	0.8652767358286617	-0.21299424802293665	0.0	0.7653253474292366	-0.23787505432103953	0.0	0.7864510290856814	-0.17859164942766112	0.0	0.7602327525260055	-0.1723214391277191	0.0	0.7653213080328117	-0.16726355041285804	0.0	0.7857862188061381	-0.16901906290792987	0.0	0.8738119433823663	-0.21023437022626562	0.0	0.7850643551324176	-0.24002736644589523	0.0	0.8033470410740114	-0.17783291031174434	0.0	0.780114701603997	-0.2434446333257291	0.0	0.8019181022563505	-0.2294183910555893	0.0	0.8048218472863342	-0.16128242899239686	0.0	0.8425423812417793	-0.3157019176557627	0.0	0.8412534910619333	-0.3636004376941826	0.0	0.8364496814601675	-0.3407492864111924	0.0	0.841197845963023	-0.29542289178675935	0.0	0.827223504007208	-0.23533746557349605	0.0	0.7895708718275005	-0.2231641774611586	0.0	0.8470274548307436	-0.3092329221613385	0.0	0.8319049572668951	-0.24882097179089205	0.0	0.8412131321918744	-0.24513355482197396	0.0
91	3.0460251046025104	0.8520969323463283	-0.20098322540180288	0.0	0.8475601177475884	-0.20542374083421694	0.0	0.7611826774135391	-0.2596022418235692	0.0	0.7484255746197391	-0.19922941849888726	0.0	0.715450234809698	-0.20454412663640653	0.0	0.7188271405426321	-0.19815496641186456	0.0	0.7438016696036397	-0.1853061199156828	0.0	0.8582935762206375	-0.20165842571614317	0.0	0.7825694391117815	-0.25968265869500323	0.0	0.7657047613646886	-0.19705511789083352	0.0	0.7371047050927968	-0.2639874757922386	0.0	0.7545755280347924	-0.2538205091641533	0.0	0.7625233452799303	-0.17604326562108613	0.0	0.8645619029452443	-0.3193863403434283	0.0	0.8818036133993024	-0.37109440181286757	0.0	0.8682816185275865	-0.35497167428775284	0.0	0.8565530560760447	-0.30038904294579766	0.0	0.817203091525308	-0.24207924423568122	0.0	0.7756812820057308	-0.2441369337079759	0.0	0.8664049152323441	-0.31056173026404965	0.0	0.8291150878424581	-0.2527983079790874	0.0	0.8308031032197957	-0.26203457835318966	0.0
92	3.0794979079497904	0.8340662842224466	-0.19839649439722906	0.0	0.8291925659399885	-0.20434423492533146	0.0	0.7619680003870393	-0.2842505273469306	0.0	0.7170835069077472	-0.23194021771445758	0.0	0.6811181111781899	-0.24930235424761596	0.0	0.6822378302930123	-0.24224746454588247	0.0	0.7080778320523236	-0.2151933059758619	0.0	0.8401410937958051	-0.19946261480087377	0.0	0.7810087740686965	-0.28105806447331144	0.0	0.7318150085682064	-0.227266655127029	0.0	0.7007828969261998	-0.2916523233314471	0.0	0.7136960090844976	-0.2849306056351848	0.0	0.7242538566577195	-0.20444988756793395	0.0	0.8843765931117328	-0.31937050434742587	0.0	0.9186682536476395	-0.370979182008211	0.0	0.8980842276066151	-0.36229588593651024	0.0	0.8712111973996293	-0.3029190425236552	0.0	0.8112389380276862	-0.2535417704861254	0.0	0.7717422111186406	-0.2706992637871162	0.0	0.8832859642319184	-0.30888278248777506	0.0	0.8280829667410827	-0.26063398839401697	0.0	0.8231390447091358	-0.282752572627098	0.0
93	3.112970711297071	0.8157321563329106	-0.20422378287203571	0.0	0.81146208343385	-0.2108837252884693	0.0	0.7656843283578783	-0.3116974866295988	0.0	0.6941707903404931	-0.27639864469780406	0.0	0.6592823556393268	-0.3054352697942808	0.0	0.6579799100131546	-0.29843100739469997	0.0	0.6805693882944118	-0.2588353855192004	0.0	0.8206760615703992	-0.2051351073845472	0.0	0.778901121690242	-0.3047712218322404	0.0	0.7036242077723104	-0.2684058004176381	0.0	0.6740685235537306	-0.3291723041545276	0.0	0.6827926391905818	-0.32481917161636814	0.0	0.6921784410754543	-0.24657563862562415	0.0	0.9001761586638988	-0.31564742745317853	0.0	0.9490875139991235	-0.3629887024636954	0.0	0.9235573630294605	-0.361915080269454	0.0	0.8842049754071275	-0.30287154839115316	0.0	0.8111710707821179	-0.270230473208512	0.0	0.7797057683516961	-0.3023962332061	0.0	0.8961242250983954	-0.30446007869022507	0.0	0.829657203839635	-0.27340892566763136	0.0	0.8210010656197207	-0.30779845262948224	0.0
94	3.1464435146443512	0.7986100654148067	-0.2189474732129957	0.0	0.7955294397693071	-0.2254165867527455	0.0	0.7694982193843544	-0.3413987849072512	0.0	0.6798003991034614	-0.32999109005367	0.0	0.6497500207386843	-0.3692871978774897	0.0	0.6463249348264796	-0.36288423948032367	0.0	0.6618139129590409	-0.31374140418673263	0.0	0.8016864324826742	-0.2194264963795318	0.0	0.7753526494318437	-0.33168440375918673	0.0	0.6823003944120845	-0.31871790814831336	0.0	0.6585193840693649	-0.377404057611352	0.0	0.6638772928780914	-0.37412515987239003	0.0	0.6677973318531119	-0.30012571933539894	0.0	0.9105797862829542	-0.3093148856929466	0.0	0.9712773683373739	-0.34891353849983836	0.0	0.9428419065630991	-0.35507965665405294	0.0	0.8943971120453259	-0.30080924286029675	0.0	0.817823567792428	-0.29113895391581757	0.0	0.7995489655910816	-0.33650085935368707	0.0	0.9039967646984647	-0.29843178667082115	0.0	0.834547369746101	-0.29088200645289836	0.0	0.8273141397253826	-0.33591144290158875	0.0
95	3.1799163179916317	0.7839254529479941	-0.24208094221669094	0.0	0.7822350164758549	-0.24756431389025824	0.0	0.7710703441052362	-0.3728420311876788	0.0	0.672676706430431	-0.38875150096334316	0.0	0.6502714362810166	-0.4358912666285485	0.0	0.6452949901712463	-0.4303256569587961	0.0	0.6509028405209005	-0.3755262019056317	0.0	0.784969015407223	-0.24207804085530713	0.0	0.7702050817496967	-0.36241369861668477	0.0	0.6680352946914151	-0.37546618500322443	0.0	0.6537244586741362	-0.4341285325873229	0.0	0.6567764206513088	-0.43088584894193915	0.0	0.6514872999528922	-0.3613814409766934	0.0	0.9148558499698438	-0.30249999688123674	0.0	0.984418260894154	-0.33207883563341467	0.0	0.9547671489945884	-0.34459450389998825	0.0	0.900552385493252	-0.29805966940276	0.0	0.8306541030041196	-0.3138501893378361	0.0	0.8293189335912008	-0.36810377822379464	0.0	0.9066601906621172	-0.29274166027986415	0.0	0.8431305742724349	-0.3112331704023054	0.0	0.8436769939620734	-0.3634902560758938	0.0
96	3.2133891213389116	0.7722750793573812	-0.2725390644985354	0.0	0.7719390332958072	-0.27651824887141085	0.0	0.7695319913067579	-0.4061877237522704	0.0	0.6710033308893051	-0.44924271544789757	0.0	0.657649440989164	-0.50119334611183	0.0	0.6516625986062066	-0.4964495896928173	0.0	0.6462316563421857	-0.4400370829140148	0.0	0.7717577966359876	-0.27204633462542455	0.0	0.7638854822673328	-0.39708893250691657	0.0	0.6603828227465572	-0.43602682577698526	0.0	0.6578181677810752	-0.49522455324749853	0.0	0.6595737652402597	-0.49150072185118954	0.0	0.642729697182417	-0.4268198668614661	0.0	0.9129285515629098	-0.2978360841285989	0.0	0.988553763868434	-0.3161720424918782	0.0	0.9589541534342446	-0.33383287724506483	0.0	0.9016563973176401	-0.2965563108703158	0.0	0.8477483950842497	-0.335492299998256	0.0	0.8652709437137301	-0.3918399912717531	0.0	0.9043492559474511	-0.28973198279211876	0.0	0.8551376884105324	-0.3316806394289026	0.0	0.868895057385303	-0.3855797092041938	0.0
